<?xml version="1.0" standalone="no"?>
<!DOCTYPE svg PUBLIC "-//W3C//DTD SVG 20010904//EN"
 "http://www.w3.org/TR/2001/REC-SVG-20010904/DTD/svg10.dtd">
<svg version="1.0" xmlns="http://www.w3.org/2000/svg"
 width="120.000000pt" height="120.000000pt" viewBox="0 0 120.000000 120.000000"
 preserveAspectRatio="xMidYMid meet">
<metadata>
Created by potrace 1.14, written by Peter Selinger 2001-2017
</metadata>
<g transform="translate(0.000000,120.000000) scale(0.100000,-0.100000)"
fill="#000000" stroke="none">
<path d="M752 1082 c-19 -12 -49 -15 -146 -13 -117 2 -125 0 -176 -26 -68 -36
-101 -93 -103 -177 -2 -47 -5 -56 -20 -56 -22 0 -59 -18 -69 -34 -13 -20 -8
-46 12 -66 17 -17 28 -20 68 -14 38 5 51 3 62 -11 13 -15 12 -19 -8 -35 -12
-10 -22 -23 -22 -29 0 -17 -55 7 -94 42 -20 18 -52 61 -71 97 -31 58 -35 62
-35 35 0 -16 -3 -47 -6 -68 -7 -37 -7 -37 -31 -21 -14 8 -27 14 -29 12 -2 -3
2 -27 9 -55 11 -42 11 -50 1 -46 -11 4 -10 -7 2 -49 9 -29 20 -60 24 -68 4 -8
4 -24 -1 -35 -4 -11 -8 -56 -8 -101 -1 -99 28 -166 89 -209 34 -23 47 -27 86
-22 38 4 53 0 81 -18 67 -46 128 -60 263 -60 174 0 257 25 333 102 78 77 106
157 116 337 7 132 8 136 39 175 l31 39 -27 11 c-78 31 -136 18 -238 -54 -92
-64 -109 -70 -134 -45 -22 22 -26 45 -9 56 43 26 65 187 35 259 -13 31 -13 39
0 70 9 23 12 45 7 64 -8 27 -9 28 -31 13z m-348 -217 c-12 -8 -15 -21 -12 -43
2 -18 1 -32 -3 -32 -14 0 -20 56 -9 84 9 24 13 26 25 16 13 -11 13 -14 -1 -25z
m173 5 c7 -14 13 -42 13 -62 0 -44 -22 -61 -66 -49 -26 7 -29 12 -32 54 -2 36
1 50 18 67 26 26 51 23 67 -10z m-387 -460 c0 -5 -4 -10 -10 -10 -5 0 -10 5
-10 10 0 6 5 10 10 10 6 0 10 -4 10 -10z m6 -85 c3 -13 12 -29 20 -36 8 -6 14
-20 14 -31 0 -17 -2 -18 -16 -8 -27 23 -54 100 -34 100 5 0 12 -11 16 -25z"/>
<path d="M534 856 c-3 -8 -4 -29 -2 -48 2 -25 8 -33 23 -33 22 0 31 30 21 71
-7 26 -33 32 -42 10z"/>
</g>
</svg>
